<svg width="17" height="17" viewBox="0 0 17 17" fill="none" xmlns="http://www.w3.org/2000/svg">
<g clip-path="url(#clip0)">
<path d="M5.0014 7.83594H6.32953V9.16406H5.0014V7.83594Z" fill="#0C848A" fill-opacity="0.2"/>
<path d="M7.83594 7.83594H9.16406V9.16406H7.83594V7.83594Z" fill="#0C848A" fill-opacity="0.2"/>
<path d="M10.6705 7.83594H11.9986V9.16406H10.6705V7.83594Z" fill="#0C848A" fill-opacity="0.2"/>
<path d="M11.3153 12.6503C10.4904 13.2106 9.50893 13.5145 8.5 13.5145C5.72871 13.5145 3.48555 11.2717 3.48555 8.5V8.00195H0V8.5C0 13.1976 3.80163 17 8.5 17C10.4386 17 12.305 16.3431 13.806 15.141L14.8413 16.1763L15.7624 10.8076L10.3937 11.7287L11.3153 12.6503Z" fill="#0C848A" fill-opacity="0.2"/>
<path d="M8.50004 0C6.56596 0 4.70308 0.654335 3.20375 1.85146L2.17601 0.823723L1.25488 6.19238L6.62354 5.27126L5.69411 4.34183C6.51926 3.77997 7.47917 3.48555 8.50004 3.48555C11.2713 3.48555 13.5145 5.72845 13.5145 8.5V8.99805H17V8.5C17 3.80241 13.1984 0 8.50004 0Z" fill="#0C848A" fill-opacity="0.2"/>
</g>
<defs>
<clipPath id="clip0">
<rect width="17" height="17" fill="white"/>
</clipPath>
</defs>
</svg>
