<svg aria-hidden="true" style="position: absolute; width: 0; height: 0; overflow: hidden;" version="1.1" xmlns="http://www.w3.org/2000/svg" xmlns:xlink="http://www.w3.org/1999/xlink">
<defs>
<symbol id="search" viewBox="0 0 32 32">
<path fill="#e5e5e5" style="fill: var(--color1, #e5e5e5)" d="M20.667 18.667h-1.053l-0.373-0.36c1.307-1.52 2.093-3.493 2.093-5.64 0-4.787-3.88-8.667-8.667-8.667s-8.667 3.88-8.667 8.667c0 4.787 3.88 8.667 8.667 8.667 2.147 0 4.12-0.787 5.64-2.093l0.36 0.373v1.053l6.667 6.653 1.987-1.987-6.653-6.667zM12.667 18.667c-3.32 0-6-2.68-6-6s2.68-6 6-6c3.32 0 6 2.68 6 6s-2.68 6-6 6z"></path>
</symbol>
<symbol id="Arrow" viewBox="0 0 53 32">
<path stroke-linejoin="miter" stroke-linecap="butt" stroke-miterlimit="4" stroke-width="5.3333" d="M1.886 3.448l26.667 26.667"></path>
<path stroke-linejoin="miter" stroke-linecap="butt" stroke-miterlimit="4" stroke-width="5.3333" d="M24.781 30.114l26.667-26.667"></path>
</symbol>
<symbol id="Arrows" viewBox="0 0 69 32">
<path fill="#e5e5e5" style="fill: var(--color1, #e5e5e5)" d="M25.333 20l-1.88-1.88-6.12 6.107v-21.56h-2.667v21.56l-6.12-6.12-1.88 1.893 9.333 9.333 9.333-9.333z"></path>
<path fill="#e5e5e5" style="fill: var(--color1, #e5e5e5)" d="M43.238 12l1.88 1.88 6.12-6.107v21.56h2.667v-21.56l6.12 6.12 1.88-1.893-9.333-9.333-9.334 9.333z"></path>
</symbol>
<symbol id="remove" viewBox="0 0 32 32">
<path fill="#0c848a" style="fill: var(--color2, #0c848a)" opacity="0.2" d="M5.5 4h5.5v-1c0-1.654 1.346-3 3-3h4c1.654 0 3 1.346 3 3v1h5.5c1.378 0 2.5 1.122 2.5 2.5v3.5c0 0.552-0.448 1-1 1h-0.547l-0.864 18.143c-0.076 1.602-1.393 2.857-2.997 2.857h-15.186c-1.604 0-2.92-1.255-2.997-2.857l-0.864-18.143h-0.546c-0.552 0-1-0.448-1-1v-3.5c0-1.378 1.122-2.5 2.5-2.5zM19 3c0-0.551-0.449-1-1-1h-4c-0.551 0-1 0.449-1 1v1h6v-1zM27 6.5c0-0.276-0.224-0.5-0.5-0.5h-21c-0.276 0-0.5 0.224-0.5 0.5v2.5c0.308 0 20.723 0 22 0v-2.5zM7.408 29.048c0.025 0.534 0.464 0.952 0.999 0.952h15.186c0.535 0 0.973-0.418 0.999-0.952l0.859-18.048h-18.902l0.859 18.048z"></path>
<path fill="#0c848a" style="fill: var(--color2, #0c848a)" opacity="0.2" d="M16 28c-0.552 0-1-0.448-1-1v-13c0-0.552 0.448-1 1-1s1 0.448 1 1v13c0 0.552-0.448 1-1 1z"></path>
<path fill="#0c848a" style="fill: var(--color2, #0c848a)" opacity="0.2" d="M11 28c-0.552 0-1-0.448-1-1v-13c0-0.552 0.448-1 1-1s1 0.448 1 1v13c0 0.552-0.448 1-1 1z"></path>
<path fill="#0c848a" style="fill: var(--color2, #0c848a)" opacity="0.2" d="M21 28c-0.552 0-1-0.448-1-1v-13c0-0.552 0.448-1 1-1s1 0.448 1 1v13c0 0.552-0.448 1-1 1z"></path>
</symbol>
<symbol id="exchange" viewBox="0 0 32 32">
<path fill="#0c848a" style="fill: var(--color2, #0c848a)" opacity="0.2" d="M9.414 14.75h2.5v2.5h-2.5v-2.5z"></path>
<path fill="#0c848a" style="fill: var(--color2, #0c848a)" opacity="0.2" d="M14.75 14.75h2.5v2.5h-2.5v-2.5z"></path>
<path fill="#0c848a" style="fill: var(--color2, #0c848a)" opacity="0.2" d="M20.086 14.75h2.5v2.5h-2.5v-2.5z"></path>
<path fill="#0c848a" style="fill: var(--color2, #0c848a)" opacity="0.2" d="M21.299 23.812c-1.553 1.055-3.4 1.627-5.299 1.627-5.217 0-9.439-4.222-9.439-9.439v-0.938h-6.561v0.938c0 8.843 7.156 16 16 16 3.649 0 7.162-1.237 9.988-3.499l1.949 1.949 1.734-10.106-10.106 1.734 1.735 1.735z"></path>
<path fill="#0c848a" style="fill: var(--color2, #0c848a)" opacity="0.2" d="M16 0c-3.641 0-7.147 1.232-9.97 3.485l-1.935-1.935-1.734 10.106 10.106-1.734-1.749-1.749c1.553-1.058 3.36-1.612 5.282-1.612 5.216 0 9.439 4.222 9.439 9.439v0.938h6.561v-0.938c0-8.843-7.156-16-16-16z"></path>
</symbol>
<symbol id="transfer" viewBox="0 0 32 32">
<path fill="#0c848a" style="fill: var(--color2, #0c848a)" opacity="0.2" d="M18.592 21.851v-7.424c-0.879 0.436-1.649 1.049-2.316 1.629-1.887 1.639-2.838 3.876-2.825 6.648 0.010 2.111 0.591 3.719 0.597 3.735l0.804 2.188-2.048-1.113c-0.053-0.029-1.309-0.719-2.555-2.133-1.658-1.881-2.535-4.172-2.535-6.626 0-2.070 0.454-4.078 1.312-5.904h-6.802v18.080h27.263v-18.080h-1.896l-9 9z"></path>
<path fill="#0c848a" style="fill: var(--color2, #0c848a)" opacity="0.2" d="M28.612 9.345l-8.262-8.415v5.73l-0.736 0.121c-2.58 0.425-4.911 1.652-6.74 3.548-2.193 2.273-3.401 5.265-3.401 8.426 0 2.027 0.691 3.849 2.054 5.416 0.097 0.112 0.194 0.218 0.291 0.319-0.071-0.537-0.12-1.137-0.123-1.778-0.015-3.26 1.171-6.021 3.429-7.983 1.021-0.887 2.412-1.964 4.119-2.424l1.107-0.298v5.6l8.262-8.262z"></path>
</symbol>
</defs>
</svg>
