<svg width="18" height="18" viewBox="0 0 18 18" fill="none" xmlns="http://www.w3.org/2000/svg">
<path d="M10.4582 12.2909V8.11505C9.96403 8.36018 9.5306 8.70528 9.15567 9.03122C8.09418 9.9534 7.55934 11.2116 7.56654 12.7709C7.57208 13.9586 7.89902 14.8627 7.90232 14.8716L8.3543 16.1023L7.20243 15.4763C7.17266 15.4601 6.46636 15.0718 5.76548 14.2767C4.83274 13.2189 4.33969 11.9301 4.33969 10.5496C4.33969 9.38496 4.595 8.2558 5.07794 7.22852H1.25156V17.3986H16.587V7.22852H15.5207L10.4582 12.2909Z" fill="#0C848A" fill-opacity="0.2"/>
<path d="M16.0942 5.25678L11.4469 0.52359V3.74648L11.0329 3.81481C9.58139 4.054 8.27034 4.74425 7.24153 5.81043C6.00799 7.08919 5.32837 8.7722 5.32837 10.5498C5.32837 11.6899 5.71704 12.7149 6.48354 13.5962C6.53807 13.659 6.59274 13.7186 6.64701 13.7754C6.60707 13.4732 6.57973 13.1357 6.57808 12.7753C6.56957 10.9415 7.23671 9.38858 8.50716 8.28484C9.08161 7.78585 9.86389 7.17991 10.8242 6.92157L11.4469 6.754V9.90414L16.0942 5.25678Z" fill="#0C848A" fill-opacity="0.2"/>
</svg>
